<mxfile host="app.diagrams.net" modified="2023-06-19T12:34:39.121Z" agent="Mozilla/5.0 (Windows NT 10.0; Win64; x64) AppleWebKit/537.36 (KHTML, like Gecko) Chrome/114.0.0.0 Safari/537.36" version="21.5.0" etag="6y0YwShNC-8A50V-dD1v" type="github">
  <diagram name="Sayfa -1" id="l4wb68DhymPaq1IAutxm">
    <mxGraphModel>
      <root>
        <mxCell id="0" />
        <mxCell id="1" parent="0" />
      </root>
    </mxGraphModel>
  </diagram>
</mxfile>
